<svg xmlns="http://www.w3.org/2000/svg" viewBox="0 0 7264.00 1836.94" width="7264.00" height="1836.94" role="img" aria-label="Madhesh Next">
<defs><clipPath id="xll"><rect x="5209.00" y="-1200.00" width="1270.00" height="2400.00"/></clipPath>
  <clipPath id="xrl"><rect x="6479.00" y="-1200.00" width="2000.00" height="2400.00"/></clipPath></defs>
  <g transform="translate(51.00 860.00)">
  <path transform="translate(0.00 0.00) scale(1.00000 -1.00000)" d="M830 698V0H690V454L503 0H397L209 454V0H69V698H228L450 179L672 698Z" fill="#0A2C5A"/>
  <path transform="translate(887.00 0.00) scale(1.00000 -1.00000)" d="M286 563Q348 563 394.5 538.0Q441 513 469 475V554H610V0H469V81Q442 42 394.5 16.5Q347 -9 285 -9Q215 -9 157.5 27.0Q100 63 66.5 128.5Q33 194 33 279Q33 363 66.5 428.0Q100 493 157.5 528.0Q215 563 286 563ZM322 440Q283 440 250.0 421.0Q217 402 196.5 365.5Q176 329 176 279Q176 229 196.5 191.5Q217 154 250.5 134.0Q284 114 322 114Q361 114 395.0 133.5Q429 153 449.0 189.5Q469 226 469 277Q469 328 449.0 364.5Q429 401 395.0 420.5Q361 440 322 440Z" fill="#0A2C5A"/>
  <path transform="translate(1553.00 0.00) scale(1.00000 -1.00000)" d="M287 563Q341 563 390.0 539.5Q439 516 468 477V740H610V0H468V82Q442 41 395.0 16.0Q348 -9 286 -9Q216 -9 158.0 27.0Q100 63 66.5 128.5Q33 194 33 279Q33 363 66.5 428.0Q100 493 158.0 528.0Q216 563 287 563ZM322 440Q283 440 250.0 421.0Q217 402 196.5 365.5Q176 329 176 279Q176 229 196.5 191.5Q217 154 250.5 134.0Q284 114 322 114Q361 114 395.0 133.5Q429 153 449.0 189.5Q469 226 469 277Q469 328 449.0 364.5Q429 401 395.0 420.5Q361 440 322 440Z" fill="#0A2C5A"/>
  <path transform="translate(2219.00 0.00) scale(1.00000 -1.00000)" d="M597 325V0H457V306Q457 372 424.0 407.5Q391 443 334 443Q276 443 242.5 407.5Q209 372 209 306V0H69V740H209V485Q236 521 281.0 541.5Q326 562 381 562Q444 562 493.0 534.5Q542 507 569.5 453.5Q597 400 597 325Z" fill="#0A2C5A"/>
  <path transform="translate(2868.00 0.00) scale(1.00000 -1.00000)" d="M580 235H175Q180 175 217.0 141.0Q254 107 308 107Q386 107 419 174H570Q546 94 478.0 42.5Q410 -9 311 -9Q231 -9 167.5 26.5Q104 62 68.5 127.0Q33 192 33 277Q33 363 68.0 428.0Q103 493 166.0 528.0Q229 563 311 563Q390 563 452.5 529.0Q515 495 549.5 432.5Q584 370 584 289Q584 259 580 235ZM439 329Q438 383 400.0 415.5Q362 448 307 448Q255 448 219.5 416.5Q184 385 176 329Z" fill="#0A2C5A"/>
  <path transform="translate(3473.00 0.00) scale(1.00000 -1.00000)" d="M39 175H180Q184 143 211.5 122.0Q239 101 280 101Q320 101 342.5 117.0Q365 133 365 158Q365 185 337.5 198.5Q310 212 250 228Q188 243 148.5 259.0Q109 275 80.5 308.0Q52 341 52 397Q52 443 78.5 481.0Q105 519 154.5 541.0Q204 563 271 563Q370 563 429.0 513.5Q488 464 494 380H360Q357 413 332.5 432.5Q308 452 267 452Q229 452 208.5 438.0Q188 424 188 399Q188 371 216.0 356.5Q244 342 303 327Q363 312 402.0 296.0Q441 280 469.5 246.5Q498 213 499 158Q499 110 472.5 72.0Q446 34 396.5 12.5Q347 -9 281 -9Q213 -9 159.0 15.5Q105 40 73.5 82.0Q42 124 39 175Z" fill="#0A2C5A"/>
  <path transform="translate(4006.00 0.00) scale(1.00000 -1.00000)" d="M597 325V0H457V306Q457 372 424.0 407.5Q391 443 334 443Q276 443 242.5 407.5Q209 372 209 306V0H69V740H209V485Q236 521 281.0 541.5Q326 562 381 562Q444 562 493.0 534.5Q542 507 569.5 453.5Q597 400 597 325Z" fill="#0A2C5A"/>
  <path transform="translate(4881.00 0.00) scale(1.00000 -1.00000)" d="M666 0H526L209 479V0H69V699H209L526 219V699H666Z" fill="#0A2C5A"/>
  <path transform="translate(5604.00 0.00) scale(1.00000 -1.00000)" d="M580 235H175Q180 175 217.0 141.0Q254 107 308 107Q386 107 419 174H570Q546 94 478.0 42.5Q410 -9 311 -9Q231 -9 167.5 26.5Q104 62 68.5 127.0Q33 192 33 277Q33 363 68.0 428.0Q103 493 166.0 528.0Q229 563 311 563Q390 563 452.5 529.0Q515 495 549.5 432.5Q584 370 584 289Q584 259 580 235ZM439 329Q438 383 400.0 415.5Q362 448 307 448Q255 448 219.5 416.5Q184 385 176 329Z" fill="#0A2C5A"/>
  <g clip-path="url(#xll)"><path transform="translate(6209.00 0.00) scale(1.00000 -1.00000)" d="M375 0 261 172 160 0H10L191 278L8 554H166L279 383L381 554H531L349 278L533 0Z" fill="#009B95"/></g>
  <g clip-path="url(#xrl)"><path transform="translate(6209.00 0.00) scale(1.00000 -1.00000)" d="M375 0 261 172 160 0H10L191 278L8 554H166L279 383L381 554H531L349 278L533 0Z" fill="#0A2C5A"/></g>
  <path transform="translate(6737.00 0.00) scale(1.00000 -1.00000)" d="M232 439V171Q232 143 245.5 130.5Q259 118 291 118H356V0H268Q91 0 91 172V439H25V554H91V691H232V554H356V439Z" fill="#0A2C5A"/>
  </g>
  <g transform="translate(3987.01 1249.95)">
    <path transform="translate(0.00 0.00) scale(0.23500 -0.23500)" d="M807 695V0H693V476L481 0H402L189 476V0H75V695H198L442 150L685 695Z" fill="#009B95"/>
    <path transform="translate(305.97 0.00) scale(0.23500 -0.23500)" d="M38 276Q38 360 75.0 425.0Q112 490 176.0 525.0Q240 560 319 560Q398 560 462.0 525.0Q526 490 563.0 425.0Q600 360 600 276Q600 192 562.0 127.0Q524 62 458.5 26.5Q393 -9 314 -9Q236 -9 173.0 26.5Q110 62 74.0 126.5Q38 191 38 276ZM483 276Q483 336 460.0 377.5Q437 419 399.0 440.0Q361 461 317 461Q273 461 235.5 440.0Q198 419 176.0 377.5Q154 336 154 276Q154 187 199.5 138.5Q245 90 314 90Q358 90 396.5 111.0Q435 132 459.0 174.0Q483 216 483 276Z" fill="#009B95"/>
    <path transform="translate(554.60 0.00) scale(0.23500 -0.23500)" d="M288 102 444 551H565L355 0H219L10 551H132Z" fill="#009B95"/>
    <path transform="translate(788.66 0.00) scale(0.23500 -0.23500)" d="M60 697Q60 728 81.0 749.0Q102 770 133 770Q163 770 184.0 749.0Q205 728 205 697Q205 666 184.0 645.0Q163 624 133 624Q102 624 81.0 645.0Q60 666 60 697ZM189 551V0H75V551Z" fill="#009B95"/>
    <path transform="translate(949.40 0.00) scale(0.23500 -0.23500)" d="M579 325V0H466V308Q466 382 429.0 421.5Q392 461 328 461Q264 461 226.5 421.5Q189 382 189 308V0H75V551H189V488Q217 522 260.5 541.0Q304 560 353 560Q418 560 469.5 533.0Q521 506 550.0 453.0Q579 400 579 325Z" fill="#009B95"/>
    <path transform="translate(1200.62 0.00) scale(0.23500 -0.23500)" d="M488 471V551H603V-9Q603 -85 571.0 -144.5Q539 -204 478.5 -238.0Q418 -272 334 -272Q222 -272 148.0 -219.5Q74 -167 64 -77H177Q190 -120 232.5 -146.5Q275 -173 334 -173Q403 -173 445.5 -131.0Q488 -89 488 -9V83Q459 44 409.5 17.5Q360 -9 297 -9Q225 -9 165.5 27.5Q106 64 71.5 129.5Q37 195 37 278Q37 361 71.5 425.0Q106 489 165.5 524.5Q225 560 297 560Q361 560 410.5 534.5Q460 509 488 471ZM321 461Q277 461 239.0 439.5Q201 418 177.5 376.5Q154 335 154 278Q154 221 177.5 178.0Q201 135 239.5 112.5Q278 90 321 90Q365 90 403.0 112.0Q441 134 464.5 176.5Q488 219 488 276Q488 333 464.5 375.0Q441 417 403.0 439.0Q365 461 321 461Z" fill="#009B95"/>
    <path transform="translate(1618.44 0.00) scale(0.23500 -0.23500)" d="M484 695V602H189V397H419V304H189V0H75V695Z" fill="#009B95"/>
    <path transform="translate(1838.17 0.00) scale(0.23500 -0.23500)" d="M38 276Q38 360 75.0 425.0Q112 490 176.0 525.0Q240 560 319 560Q398 560 462.0 525.0Q526 490 563.0 425.0Q600 360 600 276Q600 192 562.0 127.0Q524 62 458.5 26.5Q393 -9 314 -9Q236 -9 173.0 26.5Q110 62 74.0 126.5Q38 191 38 276ZM483 276Q483 336 460.0 377.5Q437 419 399.0 440.0Q361 461 317 461Q273 461 235.5 440.0Q198 419 176.0 377.5Q154 336 154 276Q154 187 199.5 138.5Q245 90 314 90Q358 90 396.5 111.0Q435 132 459.0 174.0Q483 216 483 276Z" fill="#009B95"/>
    <path transform="translate(2086.80 0.00) scale(0.23500 -0.23500)" d="M354 560V442H325Q258 442 223.5 408.0Q189 374 189 290V0H75V551H189V471Q214 513 255.5 536.5Q297 560 354 560Z" fill="#009B95"/>
    <path transform="translate(2275.74 0.00) scale(0.23500 -0.23500)" d="M815 551 644 0H524L413 407L302 0H182L10 551H126L241 108L358 551H477L589 110L703 551Z" fill="#009B95"/>
    <path transform="translate(2568.32 0.00) scale(0.23500 -0.23500)" d="M297 560Q362 560 410.5 534.5Q459 509 488 471V551H603V0H488V82Q459 43 409.0 17.0Q359 -9 295 -9Q224 -9 165.0 27.5Q106 64 71.5 129.5Q37 195 37 278Q37 361 71.5 425.0Q106 489 165.5 524.5Q225 560 297 560ZM321 461Q277 461 239.0 439.5Q201 418 177.5 376.5Q154 335 154 278Q154 221 177.5 178.0Q201 135 239.5 112.5Q278 90 321 90Q365 90 403.0 112.0Q441 134 464.5 176.5Q488 219 488 276Q488 333 464.5 375.0Q441 417 403.0 439.0Q365 461 321 461Z" fill="#009B95"/>
    <path transform="translate(2826.34 0.00) scale(0.23500 -0.23500)" d="M354 560V442H325Q258 442 223.5 408.0Q189 374 189 290V0H75V551H189V471Q214 513 255.5 536.5Q297 560 354 560Z" fill="#009B95"/>
    <path transform="translate(3015.28 0.00) scale(0.23500 -0.23500)" d="M298 560Q352 560 404.5 536.5Q457 513 488 474V740H603V0H488V83Q460 43 410.5 17.0Q361 -9 297 -9Q225 -9 165.5 27.5Q106 64 71.5 129.5Q37 195 37 278Q37 361 71.5 425.0Q106 489 165.5 524.5Q225 560 298 560ZM321 461Q277 461 239.0 439.5Q201 418 177.5 376.5Q154 335 154 278Q154 221 177.5 178.0Q201 135 239.5 112.5Q278 90 321 90Q365 90 403.0 112.0Q441 134 464.5 176.5Q488 219 488 276Q488 333 464.5 375.0Q441 417 403.0 439.0Q365 461 321 461Z" fill="#009B95"/>
  </g>
  <rect x="120.00" y="1453.87" width="7024.00" height="20.00" fill="#D8DEE7"/>
  <g transform="translate(3057.10 1715.61)">
    <path transform="translate(0.00 0.00) scale(0.19000 -0.19000)" d="M807 695V0H693V476L481 0H402L189 476V0H75V695H198L442 150L685 695Z" fill="#5A6B82"/>
    <path transform="translate(224.58 0.00) scale(0.19000 -0.19000)" d="M494 142H203L153 0H34L283 696H415L664 0H544ZM462 235 349 558 235 235Z" fill="#5A6B82"/>
    <path transform="translate(414.01 0.00) scale(0.19000 -0.19000)" d="M671 345Q671 239 625.5 161.0Q580 83 496.5 41.5Q413 0 302 0H75V695H302Q413 695 496.5 652.5Q580 610 625.5 530.5Q671 451 671 345ZM554 345Q554 466 489.0 534.0Q424 602 302 602H189V93H302Q424 93 489.0 159.0Q554 225 554 345Z" fill="#5A6B82"/>
    <path transform="translate(605.72 0.00) scale(0.19000 -0.19000)" d="M630 695V0H516V304H189V0H75V695H189V397H516V695Z" fill="#5A6B82"/>
    <path transform="translate(796.67 0.00) scale(0.19000 -0.19000)" d="M189 603V399H429V306H189V93H459V0H75V696H459V603Z" fill="#5A6B82"/>
    <path transform="translate(953.23 0.00) scale(0.19000 -0.19000)" d="M58 192H180Q184 147 215.5 118.0Q247 89 304 89Q363 89 396.0 117.5Q429 146 429 191Q429 226 408.5 248.0Q388 270 357.5 282.0Q327 294 273 308Q205 326 162.5 344.5Q120 363 90.0 402.0Q60 441 60 506Q60 566 90.0 611.0Q120 656 174.0 680.0Q228 704 299 704Q400 704 464.5 653.5Q529 603 536 515H410Q407 553 374.0 580.0Q341 607 287 607Q238 607 207.0 582.0Q176 557 176 510Q176 478 195.5 457.5Q215 437 245.0 425.0Q275 413 327 399Q396 380 439.5 361.0Q483 342 513.5 302.5Q544 263 544 197Q544 144 515.5 97.0Q487 50 432.5 21.5Q378 -7 304 -7Q234 -7 178.0 17.5Q122 42 90.0 87.0Q58 132 58 192Z" fill="#5A6B82"/>
    <path transform="translate(1124.99 0.00) scale(0.19000 -0.19000)" d="M630 695V0H516V304H189V0H75V695H189V397H516V695Z" fill="#5A6B82"/>
    <path transform="translate(1422.34 0.00) scale(0.19000 -0.19000)" d="M123 155Q219 238 274.5 291.5Q330 345 367.0 403.0Q404 461 404 519Q404 579 375.5 613.0Q347 647 286 647Q227 647 194.5 609.5Q162 572 160 509H50Q53 623 118.5 683.5Q184 744 285 744Q394 744 455.5 684.0Q517 624 517 524Q517 452 480.5 385.5Q444 319 393.5 266.5Q343 214 265 145L220 105H537V10H51V93Z" fill="#5A6B82"/>
    <path transform="translate(1588.97 0.00) scale(0.19000 -0.19000)" d="M320 742Q463 742 521.5 644.5Q580 547 580 374Q580 199 521.5 100.5Q463 2 320 2Q177 2 118.5 100.5Q60 199 60 374Q60 547 118.5 644.5Q177 742 320 742ZM320 638Q257 638 225.0 602.5Q193 567 182.5 511.0Q172 455 172 374Q172 290 182.0 233.0Q192 176 224.5 141.0Q257 106 320 106Q383 106 415.5 141.0Q448 176 458.0 233.0Q468 290 468 374Q468 455 457.5 511.0Q447 567 415.0 602.5Q383 638 320 638Z" fill="#5A6B82"/>
    <path transform="translate(1767.76 0.00) scale(0.19000 -0.19000)" d="M297 746Q367 746 418.0 721.0Q469 696 495.0 653.0Q521 610 521 556Q521 494 488.0 450.0Q455 406 409 391V387Q468 369 501.0 321.5Q534 274 534 200Q534 141 507.0 95.0Q480 49 427.0 22.5Q374 -4 300 -4Q192 -4 122.5 51.5Q53 107 48 211H158Q162 158 199.0 124.5Q236 91 299 91Q360 91 393.0 124.5Q426 158 426 211Q426 281 381.5 310.5Q337 340 245 340H219V434H246Q327 435 369.5 461.0Q412 487 412 543Q412 591 381.0 619.5Q350 648 293 648Q237 648 206.0 619.5Q175 591 169 549H58Q64 642 129.5 694.0Q195 746 297 746Z" fill="#5A6B82"/>
    <path transform="translate(1937.62 0.00) scale(0.19000 -0.19000)" d="M320 742Q463 742 521.5 644.5Q580 547 580 374Q580 199 521.5 100.5Q463 2 320 2Q177 2 118.5 100.5Q60 199 60 374Q60 547 118.5 644.5Q177 742 320 742ZM320 638Q257 638 225.0 602.5Q193 567 182.5 511.0Q172 455 172 374Q172 290 182.0 233.0Q192 176 224.5 141.0Q257 106 320 106Q383 106 415.5 141.0Q448 176 458.0 233.0Q468 290 468 374Q468 455 457.5 511.0Q447 567 415.0 602.5Q383 638 320 638Z" fill="#5A6B82"/>
    <path transform="translate(2222.81 0.00) scale(0.19000 -0.19000)" d="M52 335Q52 366 73.0 387.0Q94 408 125 408Q155 408 176.0 387.0Q197 366 197 335Q197 304 176.0 283.0Q155 262 125 262Q94 262 73.0 283.0Q52 304 52 335Z" fill="#5A6B82"/>
    <path transform="translate(2432.57 0.00) scale(0.19000 -0.19000)" d="M123 155Q219 238 274.5 291.5Q330 345 367.0 403.0Q404 461 404 519Q404 579 375.5 613.0Q347 647 286 647Q227 647 194.5 609.5Q162 572 160 509H50Q53 623 118.5 683.5Q184 744 285 744Q394 744 455.5 684.0Q517 624 517 524Q517 452 480.5 385.5Q444 319 393.5 266.5Q343 214 265 145L220 105H537V10H51V93Z" fill="#5A6B82"/>
    <path transform="translate(2599.20 0.00) scale(0.19000 -0.19000)" d="M320 742Q463 742 521.5 644.5Q580 547 580 374Q580 199 521.5 100.5Q463 2 320 2Q177 2 118.5 100.5Q60 199 60 374Q60 547 118.5 644.5Q177 742 320 742ZM320 638Q257 638 225.0 602.5Q193 567 182.5 511.0Q172 455 172 374Q172 290 182.0 233.0Q192 176 224.5 141.0Q257 106 320 106Q383 106 415.5 141.0Q448 176 458.0 233.0Q468 290 468 374Q468 455 457.5 511.0Q447 567 415.0 602.5Q383 638 320 638Z" fill="#5A6B82"/>
    <path transform="translate(2777.99 0.00) scale(0.19000 -0.19000)" d="M46 152V238L382 720H520V251H613V152H520V0H408V152ZM413 604 177 251H413Z" fill="#5A6B82"/>
    <path transform="translate(2957.92 0.00) scale(0.19000 -0.19000)" d="M320 742Q463 742 521.5 644.5Q580 547 580 374Q580 199 521.5 100.5Q463 2 320 2Q177 2 118.5 100.5Q60 199 60 374Q60 547 118.5 644.5Q177 742 320 742ZM320 638Q257 638 225.0 602.5Q193 567 182.5 511.0Q172 455 172 374Q172 290 182.0 233.0Q192 176 224.5 141.0Q257 106 320 106Q383 106 415.5 141.0Q448 176 458.0 233.0Q468 290 468 374Q468 455 457.5 511.0Q447 567 415.0 602.5Q383 638 320 638Z" fill="#5A6B82"/>
    <path transform="translate(3243.11 0.00) scale(0.19000 -0.19000)" d="M52 335Q52 366 73.0 387.0Q94 408 125 408Q155 408 176.0 387.0Q197 366 197 335Q197 304 176.0 283.0Q155 262 125 262Q94 262 73.0 283.0Q52 304 52 335Z" fill="#5A6B82"/>
    <path transform="translate(3452.87 0.00) scale(0.19000 -0.19000)" d="M123 155Q219 238 274.5 291.5Q330 345 367.0 403.0Q404 461 404 519Q404 579 375.5 613.0Q347 647 286 647Q227 647 194.5 609.5Q162 572 160 509H50Q53 623 118.5 683.5Q184 744 285 744Q394 744 455.5 684.0Q517 624 517 524Q517 452 480.5 385.5Q444 319 393.5 266.5Q343 214 265 145L220 105H537V10H51V93Z" fill="#5A6B82"/>
    <path transform="translate(3619.50 0.00) scale(0.19000 -0.19000)" d="M320 742Q463 742 521.5 644.5Q580 547 580 374Q580 199 521.5 100.5Q463 2 320 2Q177 2 118.5 100.5Q60 199 60 374Q60 547 118.5 644.5Q177 742 320 742ZM320 638Q257 638 225.0 602.5Q193 567 182.5 511.0Q172 455 172 374Q172 290 182.0 233.0Q192 176 224.5 141.0Q257 106 320 106Q383 106 415.5 141.0Q448 176 458.0 233.0Q468 290 468 374Q468 455 457.5 511.0Q447 567 415.0 602.5Q383 638 320 638Z" fill="#5A6B82"/>
    <path transform="translate(3798.29 0.00) scale(0.19000 -0.19000)" d="M530 631H195V432Q216 460 257.5 479.0Q299 498 346 498Q430 498 482.5 462.0Q535 426 557.5 371.0Q580 316 580 255Q580 181 551.5 123.5Q523 66 466.5 33.0Q410 0 328 0Q219 0 153.0 54.0Q87 108 74 197H185Q196 150 234.0 122.5Q272 95 329 95Q400 95 435.5 138.0Q471 181 471 252Q471 324 435.0 362.5Q399 401 329 401Q280 401 246.5 376.5Q213 352 198 310H90V731H530Z" fill="#5A6B82"/>
    <path transform="translate(3976.70 0.00) scale(0.19000 -0.19000)" d="M320 742Q463 742 521.5 644.5Q580 547 580 374Q580 199 521.5 100.5Q463 2 320 2Q177 2 118.5 100.5Q60 199 60 374Q60 547 118.5 644.5Q177 742 320 742ZM320 638Q257 638 225.0 602.5Q193 567 182.5 511.0Q172 455 172 374Q172 290 182.0 233.0Q192 176 224.5 141.0Q257 106 320 106Q383 106 415.5 141.0Q448 176 458.0 233.0Q468 290 468 374Q468 455 457.5 511.0Q447 567 415.0 602.5Q383 638 320 638Z" fill="#5A6B82"/>
  </g>
</svg>
