<svg xmlns="http://www.w3.org/2000/svg" viewBox="0 0 7224.00 1667.60" width="7224.00" height="1667.60" role="img" aria-label="Madhesh Next">
<defs><clipPath id="xlb"><rect x="5209.00" y="-1200.00" width="1270.00" height="2400.00"/></clipPath>
  <clipPath id="xrb"><rect x="6479.00" y="-1200.00" width="2000.00" height="2400.00"/></clipPath></defs>
  <g transform="translate(31.00 840.00)">
  <path transform="translate(0.00 0.00) scale(1.00000 -1.00000)" d="M830 698V0H690V454L503 0H397L209 454V0H69V698H228L450 179L672 698Z" fill="#0A2C5A"/>
  <path transform="translate(887.00 0.00) scale(1.00000 -1.00000)" d="M286 563Q348 563 394.5 538.0Q441 513 469 475V554H610V0H469V81Q442 42 394.5 16.5Q347 -9 285 -9Q215 -9 157.5 27.0Q100 63 66.5 128.5Q33 194 33 279Q33 363 66.5 428.0Q100 493 157.5 528.0Q215 563 286 563ZM322 440Q283 440 250.0 421.0Q217 402 196.5 365.5Q176 329 176 279Q176 229 196.5 191.5Q217 154 250.5 134.0Q284 114 322 114Q361 114 395.0 133.5Q429 153 449.0 189.5Q469 226 469 277Q469 328 449.0 364.5Q429 401 395.0 420.5Q361 440 322 440Z" fill="#0A2C5A"/>
  <path transform="translate(1553.00 0.00) scale(1.00000 -1.00000)" d="M287 563Q341 563 390.0 539.5Q439 516 468 477V740H610V0H468V82Q442 41 395.0 16.0Q348 -9 286 -9Q216 -9 158.0 27.0Q100 63 66.5 128.5Q33 194 33 279Q33 363 66.5 428.0Q100 493 158.0 528.0Q216 563 287 563ZM322 440Q283 440 250.0 421.0Q217 402 196.5 365.5Q176 329 176 279Q176 229 196.5 191.5Q217 154 250.5 134.0Q284 114 322 114Q361 114 395.0 133.5Q429 153 449.0 189.5Q469 226 469 277Q469 328 449.0 364.5Q429 401 395.0 420.5Q361 440 322 440Z" fill="#0A2C5A"/>
  <path transform="translate(2219.00 0.00) scale(1.00000 -1.00000)" d="M597 325V0H457V306Q457 372 424.0 407.5Q391 443 334 443Q276 443 242.5 407.5Q209 372 209 306V0H69V740H209V485Q236 521 281.0 541.5Q326 562 381 562Q444 562 493.0 534.5Q542 507 569.5 453.5Q597 400 597 325Z" fill="#0A2C5A"/>
  <path transform="translate(2868.00 0.00) scale(1.00000 -1.00000)" d="M580 235H175Q180 175 217.0 141.0Q254 107 308 107Q386 107 419 174H570Q546 94 478.0 42.5Q410 -9 311 -9Q231 -9 167.5 26.5Q104 62 68.5 127.0Q33 192 33 277Q33 363 68.0 428.0Q103 493 166.0 528.0Q229 563 311 563Q390 563 452.5 529.0Q515 495 549.5 432.5Q584 370 584 289Q584 259 580 235ZM439 329Q438 383 400.0 415.5Q362 448 307 448Q255 448 219.5 416.5Q184 385 176 329Z" fill="#0A2C5A"/>
  <path transform="translate(3473.00 0.00) scale(1.00000 -1.00000)" d="M39 175H180Q184 143 211.5 122.0Q239 101 280 101Q320 101 342.5 117.0Q365 133 365 158Q365 185 337.5 198.5Q310 212 250 228Q188 243 148.5 259.0Q109 275 80.5 308.0Q52 341 52 397Q52 443 78.5 481.0Q105 519 154.5 541.0Q204 563 271 563Q370 563 429.0 513.5Q488 464 494 380H360Q357 413 332.5 432.5Q308 452 267 452Q229 452 208.5 438.0Q188 424 188 399Q188 371 216.0 356.5Q244 342 303 327Q363 312 402.0 296.0Q441 280 469.5 246.5Q498 213 499 158Q499 110 472.5 72.0Q446 34 396.5 12.5Q347 -9 281 -9Q213 -9 159.0 15.5Q105 40 73.5 82.0Q42 124 39 175Z" fill="#0A2C5A"/>
  <path transform="translate(4006.00 0.00) scale(1.00000 -1.00000)" d="M597 325V0H457V306Q457 372 424.0 407.5Q391 443 334 443Q276 443 242.5 407.5Q209 372 209 306V0H69V740H209V485Q236 521 281.0 541.5Q326 562 381 562Q444 562 493.0 534.5Q542 507 569.5 453.5Q597 400 597 325Z" fill="#0A2C5A"/>
  <path transform="translate(4881.00 0.00) scale(1.00000 -1.00000)" d="M666 0H526L209 479V0H69V699H209L526 219V699H666Z" fill="#0A2C5A"/>
  <path transform="translate(5604.00 0.00) scale(1.00000 -1.00000)" d="M580 235H175Q180 175 217.0 141.0Q254 107 308 107Q386 107 419 174H570Q546 94 478.0 42.5Q410 -9 311 -9Q231 -9 167.5 26.5Q104 62 68.5 127.0Q33 192 33 277Q33 363 68.0 428.0Q103 493 166.0 528.0Q229 563 311 563Q390 563 452.5 529.0Q515 495 549.5 432.5Q584 370 584 289Q584 259 580 235ZM439 329Q438 383 400.0 415.5Q362 448 307 448Q255 448 219.5 416.5Q184 385 176 329Z" fill="#0A2C5A"/>
  <g clip-path="url(#xlb)"><path transform="translate(6209.00 0.00) scale(1.00000 -1.00000)" d="M375 0 261 172 160 0H10L191 278L8 554H166L279 383L381 554H531L349 278L533 0Z" fill="#009B95"/></g>
  <g clip-path="url(#xrb)"><path transform="translate(6209.00 0.00) scale(1.00000 -1.00000)" d="M375 0 261 172 160 0H10L191 278L8 554H166L279 383L381 554H531L349 278L533 0Z" fill="#0A2C5A"/></g>
  <path transform="translate(6737.00 0.00) scale(1.00000 -1.00000)" d="M232 439V171Q232 143 245.5 130.5Q259 118 291 118H356V0H268Q91 0 91 172V439H25V554H91V691H232V554H356V439Z" fill="#0A2C5A"/>
  </g>
  <rect x="100.00" y="1009.00" width="7024.00" height="35.00" fill="#009B95"/>
  <g transform="translate(100.00 1561.16)">
    <path transform="translate(0.00 0.00) scale(0.46000 -0.46000)" d="M509 551V0H428V250H207V213Q207 180 192.5 165.5Q178 151 159 151Q140 151 119.0 163.5Q98 176 80.0 195.5Q62 215 50.5 237.0Q39 259 39 278Q39 296 52.5 308.5Q66 321 100 321H126V551H0V622H612V551ZM428 551H207V321H428Z" fill="#0A2C5A"/>
    <path transform="translate(290.26 0.00) scale(0.46000 -0.46000)" d="M629 551H526V0H445V185L463 160Q439 135 397.0 118.5Q355 102 296 102Q236 102 191.5 121.0Q147 140 122.5 174.0Q98 208 98 253Q98 285 113.5 315.5Q129 346 166 365Q168 367 171.5 368.5Q175 370 179 372Q201 385 227.0 389.0Q253 393 281 393Q295 393 309.5 391.5Q324 390 335 388L327 318Q317 320 307.0 320.5Q297 321 283 321Q249 321 225.5 313.0Q202 305 190.0 289.0Q178 273 178 249Q178 211 211.0 191.5Q244 172 295 172Q348 172 391.0 196.5Q434 221 459 260L445 208V551H383V622H629ZM172 331Q138 347 110.0 370.5Q82 394 66.0 425.5Q50 457 50 496Q50 560 90.0 596.0Q130 632 199 632Q244 632 273.0 617.0Q302 602 315.5 577.0Q329 552 329 521Q329 495 318.5 472.0Q308 449 285 428L225 464Q239 478 245.5 492.0Q252 506 252 520Q252 543 238.5 555.5Q225 568 199 568Q167 568 147.5 547.0Q128 526 128 490Q128 452 151.0 425.0Q174 398 217 378Z" fill="#0A2C5A"/>
    <path transform="translate(594.32 0.00) scale(0.46000 -0.46000)" d="M-169 615Q-190 682 -205.5 723.0Q-221 764 -235.5 785.5Q-250 807 -268.0 815.0Q-286 823 -312 823Q-333 823 -355.0 818.5Q-377 814 -395 807L-417 878Q-396 886 -369.0 891.0Q-342 896 -317 896Q-273 896 -242.5 883.5Q-212 871 -188.0 839.5Q-164 808 -142.5 753.5Q-121 699 -95 615Z" fill="#0A2C5A"/>
    <path transform="translate(594.32 0.00) scale(0.46000 -0.46000)" d="M591 551V0H510V551H421V622H694V551ZM129 173Q84 173 56.0 194.0Q28 215 28 249Q28 278 46.5 293.5Q65 309 94 309Q122 309 144.0 295.5Q166 282 191 251L202 230Q250 187 292.5 137.5Q335 88 372 38L303 -6Q251 66 210.5 117.0Q170 168 137 202L125 251Q180 257 222.5 281.5Q265 306 290.0 349.0Q315 392 315 451Q315 507 290.5 536.5Q266 566 221 566Q187 566 168.0 548.5Q149 531 149 505Q149 470 178.5 453.5Q208 437 260 433L248 368Q169 374 122.0 409.0Q75 444 75 509Q75 565 112.5 598.5Q150 632 219 632Q273 632 312.0 609.5Q351 587 372.5 545.5Q394 504 394 445Q394 378 368.5 326.5Q343 275 298.0 240.5Q253 206 194 189L183 182Q166 178 154.5 175.5Q143 173 129 173Z" fill="#0A2C5A"/>
    <path transform="translate(1049.26 0.00) scale(0.46000 -0.46000)" d="M0 622H569V551H466V0H385V298H204V244Q204 216 190.0 202.0Q176 188 153 188Q135 188 114.5 200.0Q94 212 76.5 232.0Q59 252 48.0 274.5Q37 297 37 318Q37 341 50.5 355.0Q64 369 98 369H385V551H0Z" fill="#0A2C5A"/>
    <path transform="translate(1321.58 0.00) scale(0.46000 -0.46000)" d="M-169 615Q-190 682 -205.5 723.0Q-221 764 -235.5 785.5Q-250 807 -268.0 815.0Q-286 823 -312 823Q-333 823 -355.0 818.5Q-377 814 -395 807L-417 878Q-396 886 -369.0 891.0Q-342 896 -317 896Q-273 896 -242.5 883.5Q-212 871 -188.0 839.5Q-164 808 -142.5 753.5Q-121 699 -95 615Z" fill="#0A2C5A"/>
    <path transform="translate(1322.04 0.00) scale(0.46000 -0.46000)" d="M619 551H458V0H377V210L391 183Q372 164 348.5 149.0Q325 134 296.0 126.0Q267 118 233 118Q182 118 139.5 137.5Q97 157 71.5 195.5Q46 234 46 291Q46 373 100.5 418.5Q155 464 252 464Q278 464 300.5 461.5Q323 459 342 454L335 381Q318 386 297.5 388.5Q277 391 254 391Q193 391 160.0 364.5Q127 338 127 288Q127 239 157.5 214.5Q188 190 233 190Q281 190 320.0 214.5Q359 239 381 273L377 224V551H0V622H619ZM435 233 440 321Q466 341 496.0 354.5Q526 368 573 368H642V297H586Q550 297 526.5 291.0Q503 285 482.5 271.0Q462 257 435 233Z" fill="#0A2C5A"/>
    <path transform="translate(1584.70 0.00) scale(0.46000 -0.46000)" d="M287 -14Q212 60 154.5 131.0Q97 202 70 251Q56 277 49.0 299.0Q42 321 42 340Q42 366 56.5 380.0Q71 394 96 394Q122 394 146.5 375.5Q171 357 195 326L148 331Q193 345 209.5 382.0Q226 419 226 460Q226 495 218.5 522.0Q211 549 202 564L243 551H0V622H496V551H251L285 566Q296 542 301.5 513.5Q307 485 307 450Q307 410 295.5 376.5Q284 343 261 317L257 310Q239 289 213.0 273.0Q187 257 147 243L145 254Q170 220 201.0 185.5Q232 151 269.0 115.0Q306 79 348 40ZM398 239Q355 239 304.5 250.5Q254 262 210 290L238 347Q279 327 318.0 319.0Q357 311 398 311Q424 311 447.5 313.5Q471 316 498 320L500 249Q475 243 451.0 241.0Q427 239 398 239Z" fill="#0A2C5A"/>
    <path transform="translate(1773.76 0.00) scale(0.46000 -0.46000)" d="M518 551H400V358H317Q225 358 175.5 325.0Q126 292 126 217Q126 147 172.0 110.5Q218 74 283 74Q330 74 368.5 89.0Q407 104 450 135L484 70Q444 37 395.5 18.5Q347 0 282 0Q213 0 160.0 26.5Q107 53 76.5 102.0Q46 151 46 218Q46 323 113.5 375.5Q181 428 306 428H348L319 404V551H0V622H518Z" fill="#0A2C5A"/>
  </g>
</svg>
